<svg xmlns="http://www.w3.org/2000/svg" width="61" height="25" version="1.1" viewBox="0 0 61 25"><path stroke="#bbb" d="m12.5 21.43v2.6162"/><path stroke="#bbb" d="m8.833 20.55-1.1521 2.322"/><path stroke="#bbb" d="m5.633 17.98-2.0148 1.652"/><path stroke="#bbb" d="m3.784 14.37-2.5101.616"/><path stroke="#bbb" d="m3.843 10.4-2.4915-.6856"/><path stroke="#bbb" d="m5.788 6.83-1.9749-1.701"/><path stroke="#bbb" d="m9.046 4.34-1.0909-2.3489"/><path stroke="#bbb" d="m12.5 3.57v-2.6162"/><circle cx="12.5" cy="12.5" r="6.5" fill="none" stroke="#000" stroke-width="1.898"/><path stroke="#000" d="m11 11-2-2"/><rect width="22" height="22" x="23.5" y="1.5" fill="none" stroke="#bbb" stroke-width="1" ry="2"/><path d="m30 5v15h2v-6h7v-2h-7v-5h7v-2h-7z"/><rect width="5" height="1" x="52" y="19" fill="#bbb"/><rect width="2" height="1" x="52" y="16.7" fill="#bbb"/><rect width="2" height="1" x="52" y="14.3" fill="#bbb"/><rect width="5" height="1" x="52" y="12" fill="#bbb"/><rect width="2" height="1" x="52" y="9.7" fill="#bbb"/><rect width="2" height="1" x="52" y="7.3" fill="#bbb"/><rect width="5" height="1" x="52" y="5" fill="#bbb"/><rect width="9" height="3" x="51" y="17" fill="#555"/><rect width="9" height="1" x="51" y="18" fill="#aaa"/><rect width="2" height="15" x="50" y="5"/></svg>