<svg xmlns="http://www.w3.org/2000/svg" width="128" height="64" version="1.1" viewBox="0 0 128 64"><rect width="119" height="55" x="4.5" y="4.5" fill="#fff" stroke-width="1.004" filter="url(#filter1134)" ry=".7"/><metadata/><defs><filter id="filter1134" width="1.06" height="1.12" x="-.03" y="-.06" color-interpolation-filters="sRGB"><feFlood flood-color="#999" result="flood"/><feComposite in="flood" in2="SourceGraphic" operator="in" result="composite1"/><feGaussianBlur in="composite1" result="blur" stdDeviation="2"/><feOffset dx="0" dy="0" result="offset"/><feComposite in="SourceGraphic" in2="offset" result="composite2"/></filter></defs><g transform="matrix(.64576 0 0 .64956 42.494 .26317)"><g stroke="#bbb"><path d="m13.678 32.387v2.6162"/><path d="m10.011 31.507-1.1521 2.322"/><path d="m6.8111 28.937-2.0148 1.652"/><path d="m4.9621 25.327-2.5101 0.616"/><path d="m5.0211 21.357-2.4915-0.6856"/><path d="m6.9661 17.787-1.9749-1.701"/><path d="m10.224 15.297-1.0909-2.3489"/><path d="m13.678 14.527v-2.6162"/></g><circle cx="13.678" cy="23.457" r="6.5" fill="none" stroke="#000" stroke-width="1.898"/><path stroke="#000" d="m12.178 21.957-2-2"/><rect width="22" height="22" x="24.678" y="12.457" fill="none" stroke="#bbb" ry="2"/><path d="m31.178 15.957v15h2v-6h7v-2h-7v-5h7v-2h-7z"/><g fill="#bbb"><rect width="5" height="1" x="53.178" y="29.957"/><rect width="2" height="1" x="53.178" y="27.657"/><rect width="2" height="1" x="53.178" y="25.257"/><rect width="5" height="1" x="53.178" y="22.957"/><rect width="2" height="1" x="53.178" y="20.657"/><rect width="2" height="1" x="53.178" y="18.257"/><rect width="5" height="1" x="53.178" y="15.957"/></g><rect width="9" height="3" x="52.178" y="27.957" fill="#555"/><rect width="9" height="1" x="52.178" y="28.957" fill="#aaa"/><rect width="2" height="15" x="51.178" y="15.957"/></g><text x="27.501" y="33.628" fill="#000" stroke-width="1" font-family="Lato" font-size="8" letter-spacing="0" word-spacing="0" xml:space="preserve" style="line-height:125%"><tspan x="27.501" y="33.628">Open Fixture Library</tspan></text><text x="63.927" y="43.294" fill="#666" stroke-width="1" font-family="Lato" font-size="4" letter-spacing="0" text-align="center" text-anchor="middle" word-spacing="0" xml:space="preserve" style="line-height:144%"><tspan x="63.927" y="43.294">Create and browse fixture definitions for lighting equipment</tspan><tspan x="63.927" y="49.054">online and download them in the right format</tspan><tspan x="63.927" y="54.814">for your DMX control software!</tspan></text></svg>